<?xml version="1.0" encoding="utf-8" standalone="no"?>
<!DOCTYPE svg PUBLIC "-//W3C//DTD SVG 1.1//EN"
  "http://www.w3.org/Graphics/SVG/1.1/DTD/svg11.dtd">
<svg height="247pt" version="1.1" viewBox="0 0 582.665625 247" width="582.665625pt" xmlns="http://www.w3.org/2000/svg" xmlns:xlink="http://www.w3.org/1999/xlink">
 <metadata>
  <rdf:RDF xmlns:cc="http://creativecommons.org/ns#" xmlns:dc="http://purl.org/dc/elements/1.1/" xmlns:rdf="http://www.w3.org/1999/02/22-rdf-syntax-ns#">
   <cc:Work>
    <dc:type rdf:resource="http://purl.org/dc/dcmitype/StillImage"/>
    <dc:date>2022-03-14T16:40:22.061609</dc:date>
    <dc:format>image/svg+xml</dc:format>
    <dc:creator>
     <cc:Agent>
      <dc:title>Matplotlib v3.4.2, https://matplotlib.org/</dc:title>
     </cc:Agent>
    </dc:creator>
   </cc:Work>
  </rdf:RDF>
 </metadata>
 <defs>
  <style type="text/css">*{stroke-linecap:butt;stroke-linejoin:round;}</style>
 </defs>
 <g id="figure_1">
  <g id="patch_1">
   <path d="M 0 247 
L 582.665625 247 
L 582.665625 0 
L 0 0 
z
" style="fill:#ffffff;"/>
  </g>
  <g id="axes_1"/>
  <g id="legend_1">
   <g id="patch_2">
    <path d="M 336.8 98.26875 
L 573.465625 98.26875 
Q 575.465625 98.26875 575.465625 96.26875 
L 575.465625 9.2 
Q 575.465625 7.2 573.465625 7.2 
L 336.8 7.2 
Q 334.8 7.2 334.8 9.2 
L 334.8 96.26875 
Q 334.8 98.26875 336.8 98.26875 
z
" style="fill:#ffffff;opacity:0.8;stroke:#ffffff;stroke-linejoin:miter;"/>
   </g>
   <g id="text_1">
    <!-- EuroCORDEX RCMs -->
    <g transform="translate(407.242969 18.798438)scale(0.1 -0.1)">
     <defs>
      <path d="M 628 4666 
L 3578 4666 
L 3578 4134 
L 1259 4134 
L 1259 2753 
L 3481 2753 
L 3481 2222 
L 1259 2222 
L 1259 531 
L 3634 531 
L 3634 0 
L 628 0 
L 628 4666 
z
" id="DejaVuSans-45" transform="scale(0.015625)"/>
      <path d="M 544 1381 
L 544 3500 
L 1119 3500 
L 1119 1403 
Q 1119 906 1312 657 
Q 1506 409 1894 409 
Q 2359 409 2629 706 
Q 2900 1003 2900 1516 
L 2900 3500 
L 3475 3500 
L 3475 0 
L 2900 0 
L 2900 538 
Q 2691 219 2414 64 
Q 2138 -91 1772 -91 
Q 1169 -91 856 284 
Q 544 659 544 1381 
z
M 1991 3584 
L 1991 3584 
z
" id="DejaVuSans-75" transform="scale(0.015625)"/>
      <path d="M 2631 2963 
Q 2534 3019 2420 3045 
Q 2306 3072 2169 3072 
Q 1681 3072 1420 2755 
Q 1159 2438 1159 1844 
L 1159 0 
L 581 0 
L 581 3500 
L 1159 3500 
L 1159 2956 
Q 1341 3275 1631 3429 
Q 1922 3584 2338 3584 
Q 2397 3584 2469 3576 
Q 2541 3569 2628 3553 
L 2631 2963 
z
" id="DejaVuSans-72" transform="scale(0.015625)"/>
      <path d="M 1959 3097 
Q 1497 3097 1228 2736 
Q 959 2375 959 1747 
Q 959 1119 1226 758 
Q 1494 397 1959 397 
Q 2419 397 2687 759 
Q 2956 1122 2956 1747 
Q 2956 2369 2687 2733 
Q 2419 3097 1959 3097 
z
M 1959 3584 
Q 2709 3584 3137 3096 
Q 3566 2609 3566 1747 
Q 3566 888 3137 398 
Q 2709 -91 1959 -91 
Q 1206 -91 779 398 
Q 353 888 353 1747 
Q 353 2609 779 3096 
Q 1206 3584 1959 3584 
z
" id="DejaVuSans-6f" transform="scale(0.015625)"/>
      <path d="M 4122 4306 
L 4122 3641 
Q 3803 3938 3442 4084 
Q 3081 4231 2675 4231 
Q 1875 4231 1450 3742 
Q 1025 3253 1025 2328 
Q 1025 1406 1450 917 
Q 1875 428 2675 428 
Q 3081 428 3442 575 
Q 3803 722 4122 1019 
L 4122 359 
Q 3791 134 3420 21 
Q 3050 -91 2638 -91 
Q 1578 -91 968 557 
Q 359 1206 359 2328 
Q 359 3453 968 4101 
Q 1578 4750 2638 4750 
Q 3056 4750 3426 4639 
Q 3797 4528 4122 4306 
z
" id="DejaVuSans-43" transform="scale(0.015625)"/>
      <path d="M 2522 4238 
Q 1834 4238 1429 3725 
Q 1025 3213 1025 2328 
Q 1025 1447 1429 934 
Q 1834 422 2522 422 
Q 3209 422 3611 934 
Q 4013 1447 4013 2328 
Q 4013 3213 3611 3725 
Q 3209 4238 2522 4238 
z
M 2522 4750 
Q 3503 4750 4090 4092 
Q 4678 3434 4678 2328 
Q 4678 1225 4090 567 
Q 3503 -91 2522 -91 
Q 1538 -91 948 565 
Q 359 1222 359 2328 
Q 359 3434 948 4092 
Q 1538 4750 2522 4750 
z
" id="DejaVuSans-4f" transform="scale(0.015625)"/>
      <path d="M 2841 2188 
Q 3044 2119 3236 1894 
Q 3428 1669 3622 1275 
L 4263 0 
L 3584 0 
L 2988 1197 
Q 2756 1666 2539 1819 
Q 2322 1972 1947 1972 
L 1259 1972 
L 1259 0 
L 628 0 
L 628 4666 
L 2053 4666 
Q 2853 4666 3247 4331 
Q 3641 3997 3641 3322 
Q 3641 2881 3436 2590 
Q 3231 2300 2841 2188 
z
M 1259 4147 
L 1259 2491 
L 2053 2491 
Q 2509 2491 2742 2702 
Q 2975 2913 2975 3322 
Q 2975 3731 2742 3939 
Q 2509 4147 2053 4147 
L 1259 4147 
z
" id="DejaVuSans-52" transform="scale(0.015625)"/>
      <path d="M 1259 4147 
L 1259 519 
L 2022 519 
Q 2988 519 3436 956 
Q 3884 1394 3884 2338 
Q 3884 3275 3436 3711 
Q 2988 4147 2022 4147 
L 1259 4147 
z
M 628 4666 
L 1925 4666 
Q 3281 4666 3915 4102 
Q 4550 3538 4550 2338 
Q 4550 1131 3912 565 
Q 3275 0 1925 0 
L 628 0 
L 628 4666 
z
" id="DejaVuSans-44" transform="scale(0.015625)"/>
      <path d="M 403 4666 
L 1081 4666 
L 2241 2931 
L 3406 4666 
L 4084 4666 
L 2584 2425 
L 4184 0 
L 3506 0 
L 2194 1984 
L 872 0 
L 191 0 
L 1856 2491 
L 403 4666 
z
" id="DejaVuSans-58" transform="scale(0.015625)"/>
      <path id="DejaVuSans-20" transform="scale(0.015625)"/>
      <path d="M 628 4666 
L 1569 4666 
L 2759 1491 
L 3956 4666 
L 4897 4666 
L 4897 0 
L 4281 0 
L 4281 4097 
L 3078 897 
L 2444 897 
L 1241 4097 
L 1241 0 
L 628 0 
L 628 4666 
z
" id="DejaVuSans-4d" transform="scale(0.015625)"/>
      <path d="M 2834 3397 
L 2834 2853 
Q 2591 2978 2328 3040 
Q 2066 3103 1784 3103 
Q 1356 3103 1142 2972 
Q 928 2841 928 2578 
Q 928 2378 1081 2264 
Q 1234 2150 1697 2047 
L 1894 2003 
Q 2506 1872 2764 1633 
Q 3022 1394 3022 966 
Q 3022 478 2636 193 
Q 2250 -91 1575 -91 
Q 1294 -91 989 -36 
Q 684 19 347 128 
L 347 722 
Q 666 556 975 473 
Q 1284 391 1588 391 
Q 1994 391 2212 530 
Q 2431 669 2431 922 
Q 2431 1156 2273 1281 
Q 2116 1406 1581 1522 
L 1381 1569 
Q 847 1681 609 1914 
Q 372 2147 372 2553 
Q 372 3047 722 3315 
Q 1072 3584 1716 3584 
Q 2034 3584 2315 3537 
Q 2597 3491 2834 3397 
z
" id="DejaVuSans-73" transform="scale(0.015625)"/>
     </defs>
     <use xlink:href="#DejaVuSans-45"/>
     <use x="63.183594" xlink:href="#DejaVuSans-75"/>
     <use x="126.5625" xlink:href="#DejaVuSans-72"/>
     <use x="165.425781" xlink:href="#DejaVuSans-6f"/>
     <use x="226.607422" xlink:href="#DejaVuSans-43"/>
     <use x="296.431641" xlink:href="#DejaVuSans-4f"/>
     <use x="375.142578" xlink:href="#DejaVuSans-52"/>
     <use x="444.625" xlink:href="#DejaVuSans-44"/>
     <use x="521.626953" xlink:href="#DejaVuSans-45"/>
     <use x="584.810547" xlink:href="#DejaVuSans-58"/>
     <use x="653.316406" xlink:href="#DejaVuSans-20"/>
     <use x="685.103516" xlink:href="#DejaVuSans-52"/>
     <use x="749.585938" xlink:href="#DejaVuSans-43"/>
     <use x="819.410156" xlink:href="#DejaVuSans-4d"/>
     <use x="905.689453" xlink:href="#DejaVuSans-73"/>
    </g>
   </g>
   <g id="line2d_1"/>
   <g id="line2d_2">
    <defs>
     <path d="M 0 3.5 
C 0.928211 3.5 1.81853 3.131218 2.474874 2.474874 
C 3.131218 1.81853 3.5 0.928211 3.5 0 
C 3.5 -0.928211 3.131218 -1.81853 2.474874 -2.474874 
C 1.81853 -3.131218 0.928211 -3.5 0 -3.5 
C -0.928211 -3.5 -1.81853 -3.131218 -2.474874 -2.474874 
C -3.131218 -1.81853 -3.5 -0.928211 -3.5 0 
C -3.5 0.928211 -3.131218 1.81853 -2.474874 2.474874 
C -1.81853 3.131218 -0.928211 3.5 0 3.5 
z
" id="m48cd2c67ed" style="stroke:#000000;"/>
    </defs>
    <g>
     <use style="fill:#0000cd;stroke:#000000;" x="348.8" xlink:href="#m48cd2c67ed" y="29.976563"/>
    </g>
   </g>
   <g id="text_2">
    <!-- ALADIN63 -->
    <g transform="translate(366.8 33.476563)scale(0.1 -0.1)">
     <defs>
      <path d="M 2188 4044 
L 1331 1722 
L 3047 1722 
L 2188 4044 
z
M 1831 4666 
L 2547 4666 
L 4325 0 
L 3669 0 
L 3244 1197 
L 1141 1197 
L 716 0 
L 50 0 
L 1831 4666 
z
" id="DejaVuSans-41" transform="scale(0.015625)"/>
      <path d="M 628 4666 
L 1259 4666 
L 1259 531 
L 3531 531 
L 3531 0 
L 628 0 
L 628 4666 
z
" id="DejaVuSans-4c" transform="scale(0.015625)"/>
      <path d="M 628 4666 
L 1259 4666 
L 1259 0 
L 628 0 
L 628 4666 
z
" id="DejaVuSans-49" transform="scale(0.015625)"/>
      <path d="M 628 4666 
L 1478 4666 
L 3547 763 
L 3547 4666 
L 4159 4666 
L 4159 0 
L 3309 0 
L 1241 3903 
L 1241 0 
L 628 0 
L 628 4666 
z
" id="DejaVuSans-4e" transform="scale(0.015625)"/>
      <path d="M 2113 2584 
Q 1688 2584 1439 2293 
Q 1191 2003 1191 1497 
Q 1191 994 1439 701 
Q 1688 409 2113 409 
Q 2538 409 2786 701 
Q 3034 994 3034 1497 
Q 3034 2003 2786 2293 
Q 2538 2584 2113 2584 
z
M 3366 4563 
L 3366 3988 
Q 3128 4100 2886 4159 
Q 2644 4219 2406 4219 
Q 1781 4219 1451 3797 
Q 1122 3375 1075 2522 
Q 1259 2794 1537 2939 
Q 1816 3084 2150 3084 
Q 2853 3084 3261 2657 
Q 3669 2231 3669 1497 
Q 3669 778 3244 343 
Q 2819 -91 2113 -91 
Q 1303 -91 875 529 
Q 447 1150 447 2328 
Q 447 3434 972 4092 
Q 1497 4750 2381 4750 
Q 2619 4750 2861 4703 
Q 3103 4656 3366 4563 
z
" id="DejaVuSans-36" transform="scale(0.015625)"/>
      <path d="M 2597 2516 
Q 3050 2419 3304 2112 
Q 3559 1806 3559 1356 
Q 3559 666 3084 287 
Q 2609 -91 1734 -91 
Q 1441 -91 1130 -33 
Q 819 25 488 141 
L 488 750 
Q 750 597 1062 519 
Q 1375 441 1716 441 
Q 2309 441 2620 675 
Q 2931 909 2931 1356 
Q 2931 1769 2642 2001 
Q 2353 2234 1838 2234 
L 1294 2234 
L 1294 2753 
L 1863 2753 
Q 2328 2753 2575 2939 
Q 2822 3125 2822 3475 
Q 2822 3834 2567 4026 
Q 2313 4219 1838 4219 
Q 1578 4219 1281 4162 
Q 984 4106 628 3988 
L 628 4550 
Q 988 4650 1302 4700 
Q 1616 4750 1894 4750 
Q 2613 4750 3031 4423 
Q 3450 4097 3450 3541 
Q 3450 3153 3228 2886 
Q 3006 2619 2597 2516 
z
" id="DejaVuSans-33" transform="scale(0.015625)"/>
     </defs>
     <use xlink:href="#DejaVuSans-41"/>
     <use x="68.408203" xlink:href="#DejaVuSans-4c"/>
     <use x="126.371094" xlink:href="#DejaVuSans-41"/>
     <use x="194.779297" xlink:href="#DejaVuSans-44"/>
     <use x="271.78125" xlink:href="#DejaVuSans-49"/>
     <use x="301.273438" xlink:href="#DejaVuSans-4e"/>
     <use x="376.078125" xlink:href="#DejaVuSans-36"/>
     <use x="439.701172" xlink:href="#DejaVuSans-33"/>
    </g>
   </g>
   <g id="line2d_3"/>
   <g id="line2d_4">
    <defs>
     <path d="M 0 3.5 
C 0.928211 3.5 1.81853 3.131218 2.474874 2.474874 
C 3.131218 1.81853 3.5 0.928211 3.5 0 
C 3.5 -0.928211 3.131218 -1.81853 2.474874 -2.474874 
C 1.81853 -3.131218 0.928211 -3.5 0 -3.5 
C -0.928211 -3.5 -1.81853 -3.131218 -2.474874 -2.474874 
C -3.131218 -1.81853 -3.5 -0.928211 -3.5 0 
C -3.5 0.928211 -3.131218 1.81853 -2.474874 2.474874 
C -1.81853 3.131218 -0.928211 3.5 0 3.5 
z
" id="m3c7d66fab0" style="stroke:#000000;"/>
    </defs>
    <g>
     <use style="fill:#8a2be2;stroke:#000000;" x="348.8" xlink:href="#m3c7d66fab0" y="44.654688"/>
    </g>
   </g>
   <g id="text_3">
    <!-- CCLM4-8-17 -->
    <g transform="translate(366.8 48.154688)scale(0.1 -0.1)">
     <defs>
      <path d="M 2419 4116 
L 825 1625 
L 2419 1625 
L 2419 4116 
z
M 2253 4666 
L 3047 4666 
L 3047 1625 
L 3713 1625 
L 3713 1100 
L 3047 1100 
L 3047 0 
L 2419 0 
L 2419 1100 
L 313 1100 
L 313 1709 
L 2253 4666 
z
" id="DejaVuSans-34" transform="scale(0.015625)"/>
      <path d="M 313 2009 
L 1997 2009 
L 1997 1497 
L 313 1497 
L 313 2009 
z
" id="DejaVuSans-2d" transform="scale(0.015625)"/>
      <path d="M 2034 2216 
Q 1584 2216 1326 1975 
Q 1069 1734 1069 1313 
Q 1069 891 1326 650 
Q 1584 409 2034 409 
Q 2484 409 2743 651 
Q 3003 894 3003 1313 
Q 3003 1734 2745 1975 
Q 2488 2216 2034 2216 
z
M 1403 2484 
Q 997 2584 770 2862 
Q 544 3141 544 3541 
Q 544 4100 942 4425 
Q 1341 4750 2034 4750 
Q 2731 4750 3128 4425 
Q 3525 4100 3525 3541 
Q 3525 3141 3298 2862 
Q 3072 2584 2669 2484 
Q 3125 2378 3379 2068 
Q 3634 1759 3634 1313 
Q 3634 634 3220 271 
Q 2806 -91 2034 -91 
Q 1263 -91 848 271 
Q 434 634 434 1313 
Q 434 1759 690 2068 
Q 947 2378 1403 2484 
z
M 1172 3481 
Q 1172 3119 1398 2916 
Q 1625 2713 2034 2713 
Q 2441 2713 2670 2916 
Q 2900 3119 2900 3481 
Q 2900 3844 2670 4047 
Q 2441 4250 2034 4250 
Q 1625 4250 1398 4047 
Q 1172 3844 1172 3481 
z
" id="DejaVuSans-38" transform="scale(0.015625)"/>
      <path d="M 794 531 
L 1825 531 
L 1825 4091 
L 703 3866 
L 703 4441 
L 1819 4666 
L 2450 4666 
L 2450 531 
L 3481 531 
L 3481 0 
L 794 0 
L 794 531 
z
" id="DejaVuSans-31" transform="scale(0.015625)"/>
      <path d="M 525 4666 
L 3525 4666 
L 3525 4397 
L 1831 0 
L 1172 0 
L 2766 4134 
L 525 4134 
L 525 4666 
z
" id="DejaVuSans-37" transform="scale(0.015625)"/>
     </defs>
     <use xlink:href="#DejaVuSans-43"/>
     <use x="69.824219" xlink:href="#DejaVuSans-43"/>
     <use x="139.648438" xlink:href="#DejaVuSans-4c"/>
     <use x="195.361328" xlink:href="#DejaVuSans-4d"/>
     <use x="281.640625" xlink:href="#DejaVuSans-34"/>
     <use x="345.263672" xlink:href="#DejaVuSans-2d"/>
     <use x="381.347656" xlink:href="#DejaVuSans-38"/>
     <use x="444.970703" xlink:href="#DejaVuSans-2d"/>
     <use x="481.054688" xlink:href="#DejaVuSans-31"/>
     <use x="544.677734" xlink:href="#DejaVuSans-37"/>
    </g>
   </g>
   <g id="line2d_5"/>
   <g id="line2d_6">
    <defs>
     <path d="M 0 3.5 
C 0.928211 3.5 1.81853 3.131218 2.474874 2.474874 
C 3.131218 1.81853 3.5 0.928211 3.5 0 
C 3.5 -0.928211 3.131218 -1.81853 2.474874 -2.474874 
C 1.81853 -3.131218 0.928211 -3.5 0 -3.5 
C -0.928211 -3.5 -1.81853 -3.131218 -2.474874 -2.474874 
C -3.131218 -1.81853 -3.5 -0.928211 -3.5 0 
C -3.5 0.928211 -3.131218 1.81853 -2.474874 2.474874 
C -1.81853 3.131218 -0.928211 3.5 0 3.5 
z
" id="m6a7bc41c03" style="stroke:#000000;"/>
    </defs>
    <g>
     <use style="fill:#c71585;stroke:#000000;" x="348.8" xlink:href="#m6a7bc41c03" y="59.332813"/>
    </g>
   </g>
   <g id="text_4">
    <!-- COSMO-crCLIM-v1-1 -->
    <g transform="translate(366.8 62.832813)scale(0.1 -0.1)">
     <defs>
      <path d="M 3425 4513 
L 3425 3897 
Q 3066 4069 2747 4153 
Q 2428 4238 2131 4238 
Q 1616 4238 1336 4038 
Q 1056 3838 1056 3469 
Q 1056 3159 1242 3001 
Q 1428 2844 1947 2747 
L 2328 2669 
Q 3034 2534 3370 2195 
Q 3706 1856 3706 1288 
Q 3706 609 3251 259 
Q 2797 -91 1919 -91 
Q 1588 -91 1214 -16 
Q 841 59 441 206 
L 441 856 
Q 825 641 1194 531 
Q 1563 422 1919 422 
Q 2459 422 2753 634 
Q 3047 847 3047 1241 
Q 3047 1584 2836 1778 
Q 2625 1972 2144 2069 
L 1759 2144 
Q 1053 2284 737 2584 
Q 422 2884 422 3419 
Q 422 4038 858 4394 
Q 1294 4750 2059 4750 
Q 2388 4750 2728 4690 
Q 3069 4631 3425 4513 
z
" id="DejaVuSans-53" transform="scale(0.015625)"/>
      <path d="M 3122 3366 
L 3122 2828 
Q 2878 2963 2633 3030 
Q 2388 3097 2138 3097 
Q 1578 3097 1268 2742 
Q 959 2388 959 1747 
Q 959 1106 1268 751 
Q 1578 397 2138 397 
Q 2388 397 2633 464 
Q 2878 531 3122 666 
L 3122 134 
Q 2881 22 2623 -34 
Q 2366 -91 2075 -91 
Q 1284 -91 818 406 
Q 353 903 353 1747 
Q 353 2603 823 3093 
Q 1294 3584 2113 3584 
Q 2378 3584 2631 3529 
Q 2884 3475 3122 3366 
z
" id="DejaVuSans-63" transform="scale(0.015625)"/>
      <path d="M 191 3500 
L 800 3500 
L 1894 563 
L 2988 3500 
L 3597 3500 
L 2284 0 
L 1503 0 
L 191 3500 
z
" id="DejaVuSans-76" transform="scale(0.015625)"/>
     </defs>
     <use xlink:href="#DejaVuSans-43"/>
     <use x="69.824219" xlink:href="#DejaVuSans-4f"/>
     <use x="148.535156" xlink:href="#DejaVuSans-53"/>
     <use x="212.011719" xlink:href="#DejaVuSans-4d"/>
     <use x="298.291016" xlink:href="#DejaVuSans-4f"/>
     <use x="379.751953" xlink:href="#DejaVuSans-2d"/>
     <use x="415.835938" xlink:href="#DejaVuSans-63"/>
     <use x="470.816406" xlink:href="#DejaVuSans-72"/>
     <use x="511.929688" xlink:href="#DejaVuSans-43"/>
     <use x="581.753906" xlink:href="#DejaVuSans-4c"/>
     <use x="637.466797" xlink:href="#DejaVuSans-49"/>
     <use x="666.958984" xlink:href="#DejaVuSans-4d"/>
     <use x="753.238281" xlink:href="#DejaVuSans-2d"/>
     <use x="786.697266" xlink:href="#DejaVuSans-76"/>
     <use x="845.876953" xlink:href="#DejaVuSans-31"/>
     <use x="909.5" xlink:href="#DejaVuSans-2d"/>
     <use x="945.583984" xlink:href="#DejaVuSans-31"/>
    </g>
   </g>
   <g id="line2d_7"/>
   <g id="line2d_8">
    <defs>
     <path d="M 0 3.5 
C 0.928211 3.5 1.81853 3.131218 2.474874 2.474874 
C 3.131218 1.81853 3.5 0.928211 3.5 0 
C 3.5 -0.928211 3.131218 -1.81853 2.474874 -2.474874 
C 1.81853 -3.131218 0.928211 -3.5 0 -3.5 
C -0.928211 -3.5 -1.81853 -3.131218 -2.474874 -2.474874 
C -3.131218 -1.81853 -3.5 -0.928211 -3.5 0 
C -3.5 0.928211 -3.131218 1.81853 -2.474874 2.474874 
C -1.81853 3.131218 -0.928211 3.5 0 3.5 
z
" id="mc83bf657af" style="stroke:#000000;"/>
    </defs>
    <g>
     <use style="fill:#ff0000;stroke:#000000;" x="348.8" xlink:href="#mc83bf657af" y="74.010938"/>
    </g>
   </g>
   <g id="text_5">
    <!-- HIRHAM5 -->
    <g transform="translate(366.8 77.510938)scale(0.1 -0.1)">
     <defs>
      <path d="M 628 4666 
L 1259 4666 
L 1259 2753 
L 3553 2753 
L 3553 4666 
L 4184 4666 
L 4184 0 
L 3553 0 
L 3553 2222 
L 1259 2222 
L 1259 0 
L 628 0 
L 628 4666 
z
" id="DejaVuSans-48" transform="scale(0.015625)"/>
      <path d="M 691 4666 
L 3169 4666 
L 3169 4134 
L 1269 4134 
L 1269 2991 
Q 1406 3038 1543 3061 
Q 1681 3084 1819 3084 
Q 2600 3084 3056 2656 
Q 3513 2228 3513 1497 
Q 3513 744 3044 326 
Q 2575 -91 1722 -91 
Q 1428 -91 1123 -41 
Q 819 9 494 109 
L 494 744 
Q 775 591 1075 516 
Q 1375 441 1709 441 
Q 2250 441 2565 725 
Q 2881 1009 2881 1497 
Q 2881 1984 2565 2268 
Q 2250 2553 1709 2553 
Q 1456 2553 1204 2497 
Q 953 2441 691 2322 
L 691 4666 
z
" id="DejaVuSans-35" transform="scale(0.015625)"/>
     </defs>
     <use xlink:href="#DejaVuSans-48"/>
     <use x="75.195312" xlink:href="#DejaVuSans-49"/>
     <use x="104.6875" xlink:href="#DejaVuSans-52"/>
     <use x="174.169922" xlink:href="#DejaVuSans-48"/>
     <use x="249.365234" xlink:href="#DejaVuSans-41"/>
     <use x="317.773438" xlink:href="#DejaVuSans-4d"/>
     <use x="404.052734" xlink:href="#DejaVuSans-35"/>
    </g>
   </g>
   <g id="line2d_9"/>
   <g id="line2d_10">
    <defs>
     <path d="M 0 3.5 
C 0.928211 3.5 1.81853 3.131218 2.474874 2.474874 
C 3.131218 1.81853 3.5 0.928211 3.5 0 
C 3.5 -0.928211 3.131218 -1.81853 2.474874 -2.474874 
C 1.81853 -3.131218 0.928211 -3.5 0 -3.5 
C -0.928211 -3.5 -1.81853 -3.131218 -2.474874 -2.474874 
C -3.131218 -1.81853 -3.5 -0.928211 -3.5 0 
C -3.5 0.928211 -3.131218 1.81853 -2.474874 2.474874 
C -1.81853 3.131218 -0.928211 3.5 0 3.5 
z
" id="m74b9715115" style="stroke:#000000;"/>
    </defs>
    <g>
     <use style="fill:#ff8c00;stroke:#000000;" x="348.8" xlink:href="#m74b9715115" y="88.689063"/>
    </g>
   </g>
   <g id="text_6">
    <!-- HadREM3-GA7-05 -->
    <g transform="translate(366.8 92.189063)scale(0.1 -0.1)">
     <defs>
      <path d="M 2194 1759 
Q 1497 1759 1228 1600 
Q 959 1441 959 1056 
Q 959 750 1161 570 
Q 1363 391 1709 391 
Q 2188 391 2477 730 
Q 2766 1069 2766 1631 
L 2766 1759 
L 2194 1759 
z
M 3341 1997 
L 3341 0 
L 2766 0 
L 2766 531 
Q 2569 213 2275 61 
Q 1981 -91 1556 -91 
Q 1019 -91 701 211 
Q 384 513 384 1019 
Q 384 1609 779 1909 
Q 1175 2209 1959 2209 
L 2766 2209 
L 2766 2266 
Q 2766 2663 2505 2880 
Q 2244 3097 1772 3097 
Q 1472 3097 1187 3025 
Q 903 2953 641 2809 
L 641 3341 
Q 956 3463 1253 3523 
Q 1550 3584 1831 3584 
Q 2591 3584 2966 3190 
Q 3341 2797 3341 1997 
z
" id="DejaVuSans-61" transform="scale(0.015625)"/>
      <path d="M 2906 2969 
L 2906 4863 
L 3481 4863 
L 3481 0 
L 2906 0 
L 2906 525 
Q 2725 213 2448 61 
Q 2172 -91 1784 -91 
Q 1150 -91 751 415 
Q 353 922 353 1747 
Q 353 2572 751 3078 
Q 1150 3584 1784 3584 
Q 2172 3584 2448 3432 
Q 2725 3281 2906 2969 
z
M 947 1747 
Q 947 1113 1208 752 
Q 1469 391 1925 391 
Q 2381 391 2643 752 
Q 2906 1113 2906 1747 
Q 2906 2381 2643 2742 
Q 2381 3103 1925 3103 
Q 1469 3103 1208 2742 
Q 947 2381 947 1747 
z
" id="DejaVuSans-64" transform="scale(0.015625)"/>
      <path d="M 3809 666 
L 3809 1919 
L 2778 1919 
L 2778 2438 
L 4434 2438 
L 4434 434 
Q 4069 175 3628 42 
Q 3188 -91 2688 -91 
Q 1594 -91 976 548 
Q 359 1188 359 2328 
Q 359 3472 976 4111 
Q 1594 4750 2688 4750 
Q 3144 4750 3555 4637 
Q 3966 4525 4313 4306 
L 4313 3634 
Q 3963 3931 3569 4081 
Q 3175 4231 2741 4231 
Q 1884 4231 1454 3753 
Q 1025 3275 1025 2328 
Q 1025 1384 1454 906 
Q 1884 428 2741 428 
Q 3075 428 3337 486 
Q 3600 544 3809 666 
z
" id="DejaVuSans-47" transform="scale(0.015625)"/>
      <path d="M 2034 4250 
Q 1547 4250 1301 3770 
Q 1056 3291 1056 2328 
Q 1056 1369 1301 889 
Q 1547 409 2034 409 
Q 2525 409 2770 889 
Q 3016 1369 3016 2328 
Q 3016 3291 2770 3770 
Q 2525 4250 2034 4250 
z
M 2034 4750 
Q 2819 4750 3233 4129 
Q 3647 3509 3647 2328 
Q 3647 1150 3233 529 
Q 2819 -91 2034 -91 
Q 1250 -91 836 529 
Q 422 1150 422 2328 
Q 422 3509 836 4129 
Q 1250 4750 2034 4750 
z
" id="DejaVuSans-30" transform="scale(0.015625)"/>
     </defs>
     <use xlink:href="#DejaVuSans-48"/>
     <use x="75.195312" xlink:href="#DejaVuSans-61"/>
     <use x="136.474609" xlink:href="#DejaVuSans-64"/>
     <use x="199.951172" xlink:href="#DejaVuSans-52"/>
     <use x="269.433594" xlink:href="#DejaVuSans-45"/>
     <use x="332.617188" xlink:href="#DejaVuSans-4d"/>
     <use x="418.896484" xlink:href="#DejaVuSans-33"/>
     <use x="482.519531" xlink:href="#DejaVuSans-2d"/>
     <use x="522.228516" xlink:href="#DejaVuSans-47"/>
     <use x="599.71875" xlink:href="#DejaVuSans-41"/>
     <use x="668.126953" xlink:href="#DejaVuSans-37"/>
     <use x="731.75" xlink:href="#DejaVuSans-2d"/>
     <use x="767.833984" xlink:href="#DejaVuSans-30"/>
     <use x="831.457031" xlink:href="#DejaVuSans-35"/>
    </g>
   </g>
   <g id="line2d_11"/>
   <g id="line2d_12">
    <defs>
     <path d="M 0 3.5 
C 0.928211 3.5 1.81853 3.131218 2.474874 2.474874 
C 3.131218 1.81853 3.5 0.928211 3.5 0 
C 3.5 -0.928211 3.131218 -1.81853 2.474874 -2.474874 
C 1.81853 -3.131218 0.928211 -3.5 0 -3.5 
C -0.928211 -3.5 -1.81853 -3.131218 -2.474874 -2.474874 
C -3.131218 -1.81853 -3.5 -0.928211 -3.5 0 
C -3.5 0.928211 -3.131218 1.81853 -2.474874 2.474874 
C -1.81853 3.131218 -0.928211 3.5 0 3.5 
z
" id="m8bf1aa8cca" style="stroke:#000000;"/>
    </defs>
    <g>
     <use style="fill:#ffd700;stroke:#000000;" x="497.725" xlink:href="#m8bf1aa8cca" y="29.976563"/>
    </g>
   </g>
   <g id="text_7">
    <!-- RACMO22E -->
    <g transform="translate(515.725 33.476563)scale(0.1 -0.1)">
     <defs>
      <path d="M 1228 531 
L 3431 531 
L 3431 0 
L 469 0 
L 469 531 
Q 828 903 1448 1529 
Q 2069 2156 2228 2338 
Q 2531 2678 2651 2914 
Q 2772 3150 2772 3378 
Q 2772 3750 2511 3984 
Q 2250 4219 1831 4219 
Q 1534 4219 1204 4116 
Q 875 4013 500 3803 
L 500 4441 
Q 881 4594 1212 4672 
Q 1544 4750 1819 4750 
Q 2544 4750 2975 4387 
Q 3406 4025 3406 3419 
Q 3406 3131 3298 2873 
Q 3191 2616 2906 2266 
Q 2828 2175 2409 1742 
Q 1991 1309 1228 531 
z
" id="DejaVuSans-32" transform="scale(0.015625)"/>
     </defs>
     <use xlink:href="#DejaVuSans-52"/>
     <use x="65.482422" xlink:href="#DejaVuSans-41"/>
     <use x="132.140625" xlink:href="#DejaVuSans-43"/>
     <use x="201.964844" xlink:href="#DejaVuSans-4d"/>
     <use x="288.244141" xlink:href="#DejaVuSans-4f"/>
     <use x="366.955078" xlink:href="#DejaVuSans-32"/>
     <use x="430.578125" xlink:href="#DejaVuSans-32"/>
     <use x="494.201172" xlink:href="#DejaVuSans-45"/>
    </g>
   </g>
   <g id="line2d_13"/>
   <g id="line2d_14">
    <defs>
     <path d="M 0 3.5 
C 0.928211 3.5 1.81853 3.131218 2.474874 2.474874 
C 3.131218 1.81853 3.5 0.928211 3.5 0 
C 3.5 -0.928211 3.131218 -1.81853 2.474874 -2.474874 
C 1.81853 -3.131218 0.928211 -3.5 0 -3.5 
C -0.928211 -3.5 -1.81853 -3.131218 -2.474874 -2.474874 
C -3.131218 -1.81853 -3.5 -0.928211 -3.5 0 
C -3.5 0.928211 -3.131218 1.81853 -2.474874 2.474874 
C -1.81853 3.131218 -0.928211 3.5 0 3.5 
z
" id="m525c97c761" style="stroke:#000000;"/>
    </defs>
    <g>
     <use style="fill:#9acd32;stroke:#000000;" x="497.725" xlink:href="#m525c97c761" y="44.654688"/>
    </g>
   </g>
   <g id="text_8">
    <!-- RCA4 -->
    <g transform="translate(515.725 48.154688)scale(0.1 -0.1)">
     <use xlink:href="#DejaVuSans-52"/>
     <use x="64.482422" xlink:href="#DejaVuSans-43"/>
     <use x="134.306641" xlink:href="#DejaVuSans-41"/>
     <use x="202.714844" xlink:href="#DejaVuSans-34"/>
    </g>
   </g>
   <g id="line2d_15"/>
   <g id="line2d_16">
    <defs>
     <path d="M 0 3.5 
C 0.928211 3.5 1.81853 3.131218 2.474874 2.474874 
C 3.131218 1.81853 3.5 0.928211 3.5 0 
C 3.5 -0.928211 3.131218 -1.81853 2.474874 -2.474874 
C 1.81853 -3.131218 0.928211 -3.5 0 -3.5 
C -0.928211 -3.5 -1.81853 -3.131218 -2.474874 -2.474874 
C -3.131218 -1.81853 -3.5 -0.928211 -3.5 0 
C -3.5 0.928211 -3.131218 1.81853 -2.474874 2.474874 
C -1.81853 3.131218 -0.928211 3.5 0 3.5 
z
" id="m43c4d13d2f" style="stroke:#000000;"/>
    </defs>
    <g>
     <use style="fill:#008000;stroke:#000000;" x="497.725" xlink:href="#m43c4d13d2f" y="59.332813"/>
    </g>
   </g>
   <g id="text_9">
    <!-- REMO2015 -->
    <g transform="translate(515.725 62.832813)scale(0.1 -0.1)">
     <use xlink:href="#DejaVuSans-52"/>
     <use x="69.482422" xlink:href="#DejaVuSans-45"/>
     <use x="132.666016" xlink:href="#DejaVuSans-4d"/>
     <use x="218.945312" xlink:href="#DejaVuSans-4f"/>
     <use x="297.65625" xlink:href="#DejaVuSans-32"/>
     <use x="361.279297" xlink:href="#DejaVuSans-30"/>
     <use x="424.902344" xlink:href="#DejaVuSans-31"/>
     <use x="488.525391" xlink:href="#DejaVuSans-35"/>
    </g>
   </g>
   <g id="line2d_17"/>
   <g id="line2d_18">
    <defs>
     <path d="M 0 3.5 
C 0.928211 3.5 1.81853 3.131218 2.474874 2.474874 
C 3.131218 1.81853 3.5 0.928211 3.5 0 
C 3.5 -0.928211 3.131218 -1.81853 2.474874 -2.474874 
C 1.81853 -3.131218 0.928211 -3.5 0 -3.5 
C -0.928211 -3.5 -1.81853 -3.131218 -2.474874 -2.474874 
C -3.131218 -1.81853 -3.5 -0.928211 -3.5 0 
C -3.5 0.928211 -3.131218 1.81853 -2.474874 2.474874 
C -1.81853 3.131218 -0.928211 3.5 0 3.5 
z
" id="me5830f2648" style="stroke:#000000;"/>
    </defs>
    <g>
     <use style="fill:#00ced1;stroke:#000000;" x="497.725" xlink:href="#me5830f2648" y="74.010938"/>
    </g>
   </g>
   <g id="text_10">
    <!-- RegCM4-6 -->
    <g transform="translate(515.725 77.510938)scale(0.1 -0.1)">
     <defs>
      <path d="M 3597 1894 
L 3597 1613 
L 953 1613 
Q 991 1019 1311 708 
Q 1631 397 2203 397 
Q 2534 397 2845 478 
Q 3156 559 3463 722 
L 3463 178 
Q 3153 47 2828 -22 
Q 2503 -91 2169 -91 
Q 1331 -91 842 396 
Q 353 884 353 1716 
Q 353 2575 817 3079 
Q 1281 3584 2069 3584 
Q 2775 3584 3186 3129 
Q 3597 2675 3597 1894 
z
M 3022 2063 
Q 3016 2534 2758 2815 
Q 2500 3097 2075 3097 
Q 1594 3097 1305 2825 
Q 1016 2553 972 2059 
L 3022 2063 
z
" id="DejaVuSans-65" transform="scale(0.015625)"/>
      <path d="M 2906 1791 
Q 2906 2416 2648 2759 
Q 2391 3103 1925 3103 
Q 1463 3103 1205 2759 
Q 947 2416 947 1791 
Q 947 1169 1205 825 
Q 1463 481 1925 481 
Q 2391 481 2648 825 
Q 2906 1169 2906 1791 
z
M 3481 434 
Q 3481 -459 3084 -895 
Q 2688 -1331 1869 -1331 
Q 1566 -1331 1297 -1286 
Q 1028 -1241 775 -1147 
L 775 -588 
Q 1028 -725 1275 -790 
Q 1522 -856 1778 -856 
Q 2344 -856 2625 -561 
Q 2906 -266 2906 331 
L 2906 616 
Q 2728 306 2450 153 
Q 2172 0 1784 0 
Q 1141 0 747 490 
Q 353 981 353 1791 
Q 353 2603 747 3093 
Q 1141 3584 1784 3584 
Q 2172 3584 2450 3431 
Q 2728 3278 2906 2969 
L 2906 3500 
L 3481 3500 
L 3481 434 
z
" id="DejaVuSans-67" transform="scale(0.015625)"/>
     </defs>
     <use xlink:href="#DejaVuSans-52"/>
     <use x="64.982422" xlink:href="#DejaVuSans-65"/>
     <use x="126.505859" xlink:href="#DejaVuSans-67"/>
     <use x="189.982422" xlink:href="#DejaVuSans-43"/>
     <use x="259.806641" xlink:href="#DejaVuSans-4d"/>
     <use x="346.085938" xlink:href="#DejaVuSans-34"/>
     <use x="409.708984" xlink:href="#DejaVuSans-2d"/>
     <use x="445.792969" xlink:href="#DejaVuSans-36"/>
    </g>
   </g>
   <g id="line2d_19"/>
   <g id="line2d_20">
    <defs>
     <path d="M 0 3.5 
C 0.928211 3.5 1.81853 3.131218 2.474874 2.474874 
C 3.131218 1.81853 3.5 0.928211 3.5 0 
C 3.5 -0.928211 3.131218 -1.81853 2.474874 -2.474874 
C 1.81853 -3.131218 0.928211 -3.5 0 -3.5 
C -0.928211 -3.5 -1.81853 -3.131218 -2.474874 -2.474874 
C -3.131218 -1.81853 -3.5 -0.928211 -3.5 0 
C -3.5 0.928211 -3.131218 1.81853 -2.474874 2.474874 
C -1.81853 3.131218 -0.928211 3.5 0 3.5 
z
" id="m0fbb69d569" style="stroke:#000000;"/>
    </defs>
    <g>
     <use style="fill:#1e90ff;stroke:#000000;" x="497.725" xlink:href="#m0fbb69d569" y="88.689063"/>
    </g>
   </g>
   <g id="text_11">
    <!-- WRF381P -->
    <g transform="translate(515.725 92.189063)scale(0.1 -0.1)">
     <defs>
      <path d="M 213 4666 
L 850 4666 
L 1831 722 
L 2809 4666 
L 3519 4666 
L 4500 722 
L 5478 4666 
L 6119 4666 
L 4947 0 
L 4153 0 
L 3169 4050 
L 2175 0 
L 1381 0 
L 213 4666 
z
" id="DejaVuSans-57" transform="scale(0.015625)"/>
      <path d="M 628 4666 
L 3309 4666 
L 3309 4134 
L 1259 4134 
L 1259 2759 
L 3109 2759 
L 3109 2228 
L 1259 2228 
L 1259 0 
L 628 0 
L 628 4666 
z
" id="DejaVuSans-46" transform="scale(0.015625)"/>
      <path d="M 1259 4147 
L 1259 2394 
L 2053 2394 
Q 2494 2394 2734 2622 
Q 2975 2850 2975 3272 
Q 2975 3691 2734 3919 
Q 2494 4147 2053 4147 
L 1259 4147 
z
M 628 4666 
L 2053 4666 
Q 2838 4666 3239 4311 
Q 3641 3956 3641 3272 
Q 3641 2581 3239 2228 
Q 2838 1875 2053 1875 
L 1259 1875 
L 1259 0 
L 628 0 
L 628 4666 
z
" id="DejaVuSans-50" transform="scale(0.015625)"/>
     </defs>
     <use xlink:href="#DejaVuSans-57"/>
     <use x="98.876953" xlink:href="#DejaVuSans-52"/>
     <use x="168.359375" xlink:href="#DejaVuSans-46"/>
     <use x="225.878906" xlink:href="#DejaVuSans-33"/>
     <use x="289.501953" xlink:href="#DejaVuSans-38"/>
     <use x="353.125" xlink:href="#DejaVuSans-31"/>
     <use x="416.748047" xlink:href="#DejaVuSans-50"/>
    </g>
   </g>
  </g>
  <g id="legend_2">
   <g id="patch_3">
    <path d="M 9.2 99.659375 
L 301.285937 99.659375 
Q 303.285937 99.659375 303.285937 97.659375 
L 303.285937 9.2 
Q 303.285937 7.2 301.285937 7.2 
L 9.2 7.2 
Q 7.2 7.2 7.2 9.2 
L 7.2 97.659375 
Q 7.2 99.659375 9.2 99.659375 
z
" style="fill:#ffffff;opacity:0.8;stroke:#ffffff;stroke-linejoin:miter;"/>
   </g>
   <g id="text_12">
    <!-- CMIP5-EC GCMs -->
    <g transform="translate(115.438281 18.798438)scale(0.1 -0.1)">
     <use xlink:href="#DejaVuSans-43"/>
     <use x="69.824219" xlink:href="#DejaVuSans-4d"/>
     <use x="156.103516" xlink:href="#DejaVuSans-49"/>
     <use x="185.595703" xlink:href="#DejaVuSans-50"/>
     <use x="245.898438" xlink:href="#DejaVuSans-35"/>
     <use x="309.521484" xlink:href="#DejaVuSans-2d"/>
     <use x="345.605469" xlink:href="#DejaVuSans-45"/>
     <use x="408.789062" xlink:href="#DejaVuSans-43"/>
     <use x="478.613281" xlink:href="#DejaVuSans-20"/>
     <use x="510.400391" xlink:href="#DejaVuSans-47"/>
     <use x="587.890625" xlink:href="#DejaVuSans-43"/>
     <use x="657.714844" xlink:href="#DejaVuSans-4d"/>
     <use x="743.994141" xlink:href="#DejaVuSans-73"/>
    </g>
   </g>
   <g id="line2d_21"/>
   <g id="line2d_22">
    <defs>
     <path d="M 0 3.5 
C 0.928211 3.5 1.81853 3.131218 2.474874 2.474874 
C 3.131218 1.81853 3.5 0.928211 3.5 0 
C 3.5 -0.928211 3.131218 -1.81853 2.474874 -2.474874 
C 1.81853 -3.131218 0.928211 -3.5 0 -3.5 
C -0.928211 -3.5 -1.81853 -3.131218 -2.474874 -2.474874 
C -3.131218 -1.81853 -3.5 -0.928211 -3.5 0 
C -3.5 0.928211 -3.131218 1.81853 -2.474874 2.474874 
C -1.81853 3.131218 -0.928211 3.5 0 3.5 
z
" id="mbf1dceedd6" style="stroke:#000000;"/>
    </defs>
    <g>
     <use style="fill:#ffffff;stroke:#000000;" x="21.2" xlink:href="#mbf1dceedd6" y="29.976563"/>
    </g>
   </g>
   <g id="text_13">
    <!-- CNRM-CM5_r1i1p1 -->
    <g transform="translate(39.2 33.476563)scale(0.1 -0.1)">
     <defs>
      <path d="M 3263 -1063 
L 3263 -1509 
L -63 -1509 
L -63 -1063 
L 3263 -1063 
z
" id="DejaVuSans-5f" transform="scale(0.015625)"/>
      <path d="M 603 3500 
L 1178 3500 
L 1178 0 
L 603 0 
L 603 3500 
z
M 603 4863 
L 1178 4863 
L 1178 4134 
L 603 4134 
L 603 4863 
z
" id="DejaVuSans-69" transform="scale(0.015625)"/>
      <path d="M 1159 525 
L 1159 -1331 
L 581 -1331 
L 581 3500 
L 1159 3500 
L 1159 2969 
Q 1341 3281 1617 3432 
Q 1894 3584 2278 3584 
Q 2916 3584 3314 3078 
Q 3713 2572 3713 1747 
Q 3713 922 3314 415 
Q 2916 -91 2278 -91 
Q 1894 -91 1617 61 
Q 1341 213 1159 525 
z
M 3116 1747 
Q 3116 2381 2855 2742 
Q 2594 3103 2138 3103 
Q 1681 3103 1420 2742 
Q 1159 2381 1159 1747 
Q 1159 1113 1420 752 
Q 1681 391 2138 391 
Q 2594 391 2855 752 
Q 3116 1113 3116 1747 
z
" id="DejaVuSans-70" transform="scale(0.015625)"/>
     </defs>
     <use xlink:href="#DejaVuSans-43"/>
     <use x="69.824219" xlink:href="#DejaVuSans-4e"/>
     <use x="144.628906" xlink:href="#DejaVuSans-52"/>
     <use x="214.111328" xlink:href="#DejaVuSans-4d"/>
     <use x="300.390625" xlink:href="#DejaVuSans-2d"/>
     <use x="336.474609" xlink:href="#DejaVuSans-43"/>
     <use x="406.298828" xlink:href="#DejaVuSans-4d"/>
     <use x="492.578125" xlink:href="#DejaVuSans-35"/>
     <use x="556.201172" xlink:href="#DejaVuSans-5f"/>
     <use x="606.201172" xlink:href="#DejaVuSans-72"/>
     <use x="647.314453" xlink:href="#DejaVuSans-31"/>
     <use x="710.9375" xlink:href="#DejaVuSans-69"/>
     <use x="738.720703" xlink:href="#DejaVuSans-31"/>
     <use x="802.34375" xlink:href="#DejaVuSans-70"/>
     <use x="865.820312" xlink:href="#DejaVuSans-31"/>
    </g>
   </g>
   <g id="line2d_23"/>
   <g id="line2d_24">
    <defs>
     <path d="M 0 -3.5 
L -3.328698 -1.081559 
L -2.057248 2.831559 
L 2.057248 2.831559 
L 3.328698 -1.081559 
z
" id="m9130532a66" style="stroke:#000000;stroke-linejoin:miter;"/>
    </defs>
    <g>
     <use style="fill:#ffffff;stroke:#000000;stroke-linejoin:miter;" x="21.2" xlink:href="#m9130532a66" y="44.932813"/>
    </g>
   </g>
   <g id="text_14">
    <!-- EC-EARTH_r12i1p1 -->
    <g transform="translate(39.2 48.432813)scale(0.1 -0.1)">
     <defs>
      <path d="M -19 4666 
L 3928 4666 
L 3928 4134 
L 2272 4134 
L 2272 0 
L 1638 0 
L 1638 4134 
L -19 4134 
L -19 4666 
z
" id="DejaVuSans-54" transform="scale(0.015625)"/>
     </defs>
     <use xlink:href="#DejaVuSans-45"/>
     <use x="63.183594" xlink:href="#DejaVuSans-43"/>
     <use x="133.007812" xlink:href="#DejaVuSans-2d"/>
     <use x="169.091797" xlink:href="#DejaVuSans-45"/>
     <use x="232.275391" xlink:href="#DejaVuSans-41"/>
     <use x="300.683594" xlink:href="#DejaVuSans-52"/>
     <use x="362.916016" xlink:href="#DejaVuSans-54"/>
     <use x="424" xlink:href="#DejaVuSans-48"/>
     <use x="499.195312" xlink:href="#DejaVuSans-5f"/>
     <use x="549.195312" xlink:href="#DejaVuSans-72"/>
     <use x="590.308594" xlink:href="#DejaVuSans-31"/>
     <use x="653.931641" xlink:href="#DejaVuSans-32"/>
     <use x="717.554688" xlink:href="#DejaVuSans-69"/>
     <use x="745.337891" xlink:href="#DejaVuSans-31"/>
     <use x="808.960938" xlink:href="#DejaVuSans-70"/>
     <use x="872.4375" xlink:href="#DejaVuSans-31"/>
    </g>
   </g>
   <g id="line2d_25"/>
   <g id="line2d_26">
    <defs>
     <path d="M 0 -3.5 
L -3.031089 -1.75 
L -3.031089 1.75 
L -0 3.5 
L 3.031089 1.75 
L 3.031089 -1.75 
z
" id="m8c6e548483" style="stroke:#000000;stroke-linejoin:miter;"/>
    </defs>
    <g>
     <use style="fill:#ffffff;stroke:#000000;stroke-linejoin:miter;" x="21.2" xlink:href="#m8c6e548483" y="59.889063"/>
    </g>
   </g>
   <g id="text_15">
    <!-- EC-EARTH_r1i1p1 -->
    <g transform="translate(39.2 63.389063)scale(0.1 -0.1)">
     <use xlink:href="#DejaVuSans-45"/>
     <use x="63.183594" xlink:href="#DejaVuSans-43"/>
     <use x="133.007812" xlink:href="#DejaVuSans-2d"/>
     <use x="169.091797" xlink:href="#DejaVuSans-45"/>
     <use x="232.275391" xlink:href="#DejaVuSans-41"/>
     <use x="300.683594" xlink:href="#DejaVuSans-52"/>
     <use x="362.916016" xlink:href="#DejaVuSans-54"/>
     <use x="424" xlink:href="#DejaVuSans-48"/>
     <use x="499.195312" xlink:href="#DejaVuSans-5f"/>
     <use x="549.195312" xlink:href="#DejaVuSans-72"/>
     <use x="590.308594" xlink:href="#DejaVuSans-31"/>
     <use x="653.931641" xlink:href="#DejaVuSans-69"/>
     <use x="681.714844" xlink:href="#DejaVuSans-31"/>
     <use x="745.337891" xlink:href="#DejaVuSans-70"/>
     <use x="808.814453" xlink:href="#DejaVuSans-31"/>
    </g>
   </g>
   <g id="line2d_27"/>
   <g id="line2d_28">
    <defs>
     <path d="M -1.75 -3.031089 
L -3.5 -0 
L -1.75 3.031089 
L 1.75 3.031089 
L 3.5 0 
L 1.75 -3.031089 
z
" id="m8e38b3b5ed" style="stroke:#000000;stroke-linejoin:miter;"/>
    </defs>
    <g>
     <use style="fill:#ffffff;stroke:#000000;stroke-linejoin:miter;" x="21.2" xlink:href="#m8e38b3b5ed" y="74.845313"/>
    </g>
   </g>
   <g id="text_16">
    <!-- EC-EARTH_r3i1p1 -->
    <g transform="translate(39.2 78.345313)scale(0.1 -0.1)">
     <use xlink:href="#DejaVuSans-45"/>
     <use x="63.183594" xlink:href="#DejaVuSans-43"/>
     <use x="133.007812" xlink:href="#DejaVuSans-2d"/>
     <use x="169.091797" xlink:href="#DejaVuSans-45"/>
     <use x="232.275391" xlink:href="#DejaVuSans-41"/>
     <use x="300.683594" xlink:href="#DejaVuSans-52"/>
     <use x="362.916016" xlink:href="#DejaVuSans-54"/>
     <use x="424" xlink:href="#DejaVuSans-48"/>
     <use x="499.195312" xlink:href="#DejaVuSans-5f"/>
     <use x="549.195312" xlink:href="#DejaVuSans-72"/>
     <use x="590.308594" xlink:href="#DejaVuSans-33"/>
     <use x="653.931641" xlink:href="#DejaVuSans-69"/>
     <use x="681.714844" xlink:href="#DejaVuSans-31"/>
     <use x="745.337891" xlink:href="#DejaVuSans-70"/>
     <use x="808.814453" xlink:href="#DejaVuSans-31"/>
    </g>
   </g>
   <g id="line2d_29"/>
   <g id="line2d_30">
    <defs>
     <path d="M -3.5 3.5 
L 3.5 3.5 
L 3.5 -3.5 
L -3.5 -3.5 
z
" id="m390583b987" style="stroke:#000000;stroke-linejoin:miter;"/>
    </defs>
    <g>
     <use style="fill:#ffffff;stroke:#000000;stroke-linejoin:miter;" x="21.2" xlink:href="#m390583b987" y="89.801563"/>
    </g>
   </g>
   <g id="text_17">
    <!-- IPSL-CM5A-MR_r1i1p1 -->
    <g transform="translate(39.2 93.301563)scale(0.1 -0.1)">
     <use xlink:href="#DejaVuSans-49"/>
     <use x="29.492188" xlink:href="#DejaVuSans-50"/>
     <use x="89.794922" xlink:href="#DejaVuSans-53"/>
     <use x="153.271484" xlink:href="#DejaVuSans-4c"/>
     <use x="207.234375" xlink:href="#DejaVuSans-2d"/>
     <use x="243.318359" xlink:href="#DejaVuSans-43"/>
     <use x="313.142578" xlink:href="#DejaVuSans-4d"/>
     <use x="399.421875" xlink:href="#DejaVuSans-35"/>
     <use x="463.044922" xlink:href="#DejaVuSans-41"/>
     <use x="529.203125" xlink:href="#DejaVuSans-2d"/>
     <use x="565.287109" xlink:href="#DejaVuSans-4d"/>
     <use x="651.566406" xlink:href="#DejaVuSans-52"/>
     <use x="721.048828" xlink:href="#DejaVuSans-5f"/>
     <use x="771.048828" xlink:href="#DejaVuSans-72"/>
     <use x="812.162109" xlink:href="#DejaVuSans-31"/>
     <use x="875.785156" xlink:href="#DejaVuSans-69"/>
     <use x="903.568359" xlink:href="#DejaVuSans-31"/>
     <use x="967.191406" xlink:href="#DejaVuSans-70"/>
     <use x="1030.667969" xlink:href="#DejaVuSans-31"/>
    </g>
   </g>
   <g id="line2d_31"/>
   <g id="line2d_32">
    <defs>
     <path d="M -1.166667 3.5 
L 1.166667 3.5 
L 1.166667 1.166667 
L 3.5 1.166667 
L 3.5 -1.166667 
L 1.166667 -1.166667 
L 1.166667 -3.5 
L -1.166667 -3.5 
L -1.166667 -1.166667 
L -3.5 -1.166667 
L -3.5 1.166667 
L -1.166667 1.166667 
z
" id="mbeaba93ae6" style="stroke:#000000;stroke-linejoin:miter;"/>
    </defs>
    <g>
     <use style="fill:#ffffff;stroke:#000000;stroke-linejoin:miter;" x="178.63125" xlink:href="#mbeaba93ae6" y="29.976563"/>
    </g>
   </g>
   <g id="text_18">
    <!-- HadGEM2-ES_r1i1p1 -->
    <g transform="translate(196.63125 33.476563)scale(0.1 -0.1)">
     <use xlink:href="#DejaVuSans-48"/>
     <use x="75.195312" xlink:href="#DejaVuSans-61"/>
     <use x="136.474609" xlink:href="#DejaVuSans-64"/>
     <use x="199.951172" xlink:href="#DejaVuSans-47"/>
     <use x="277.441406" xlink:href="#DejaVuSans-45"/>
     <use x="340.625" xlink:href="#DejaVuSans-4d"/>
     <use x="426.904297" xlink:href="#DejaVuSans-32"/>
     <use x="490.527344" xlink:href="#DejaVuSans-2d"/>
     <use x="526.611328" xlink:href="#DejaVuSans-45"/>
     <use x="589.794922" xlink:href="#DejaVuSans-53"/>
     <use x="653.271484" xlink:href="#DejaVuSans-5f"/>
     <use x="703.271484" xlink:href="#DejaVuSans-72"/>
     <use x="744.384766" xlink:href="#DejaVuSans-31"/>
     <use x="808.007812" xlink:href="#DejaVuSans-69"/>
     <use x="835.791016" xlink:href="#DejaVuSans-31"/>
     <use x="899.414062" xlink:href="#DejaVuSans-70"/>
     <use x="962.890625" xlink:href="#DejaVuSans-31"/>
    </g>
   </g>
   <g id="line2d_33"/>
   <g id="line2d_34">
    <defs>
     <path d="M 0 -3.5 
L -3.5 3.5 
L 3.5 3.5 
z
" id="m2ca18bc83c" style="stroke:#000000;stroke-linejoin:miter;"/>
    </defs>
    <g>
     <use style="fill:#ffffff;stroke:#000000;stroke-linejoin:miter;" x="178.63125" xlink:href="#m2ca18bc83c" y="44.932813"/>
    </g>
   </g>
   <g id="text_19">
    <!-- MPI-ESM-LR_r1i1p1 -->
    <g transform="translate(196.63125 48.432813)scale(0.1 -0.1)">
     <use xlink:href="#DejaVuSans-4d"/>
     <use x="86.279297" xlink:href="#DejaVuSans-50"/>
     <use x="146.582031" xlink:href="#DejaVuSans-49"/>
     <use x="176.074219" xlink:href="#DejaVuSans-2d"/>
     <use x="212.158203" xlink:href="#DejaVuSans-45"/>
     <use x="275.341797" xlink:href="#DejaVuSans-53"/>
     <use x="338.818359" xlink:href="#DejaVuSans-4d"/>
     <use x="425.097656" xlink:href="#DejaVuSans-2d"/>
     <use x="461.181641" xlink:href="#DejaVuSans-4c"/>
     <use x="516.894531" xlink:href="#DejaVuSans-52"/>
     <use x="586.376953" xlink:href="#DejaVuSans-5f"/>
     <use x="636.376953" xlink:href="#DejaVuSans-72"/>
     <use x="677.490234" xlink:href="#DejaVuSans-31"/>
     <use x="741.113281" xlink:href="#DejaVuSans-69"/>
     <use x="768.896484" xlink:href="#DejaVuSans-31"/>
     <use x="832.519531" xlink:href="#DejaVuSans-70"/>
     <use x="895.996094" xlink:href="#DejaVuSans-31"/>
    </g>
   </g>
   <g id="line2d_35"/>
   <g id="line2d_36">
    <defs>
     <path d="M -3.5 -0 
L 3.5 3.5 
L 3.5 -3.5 
z
" id="m223476ca2b" style="stroke:#000000;stroke-linejoin:miter;"/>
    </defs>
    <g>
     <use style="fill:#ffffff;stroke:#000000;stroke-linejoin:miter;" x="178.63125" xlink:href="#m223476ca2b" y="59.889063"/>
    </g>
   </g>
   <g id="text_20">
    <!-- MPI-ESM-LR_r2i1p1 -->
    <g transform="translate(196.63125 63.389063)scale(0.1 -0.1)">
     <use xlink:href="#DejaVuSans-4d"/>
     <use x="86.279297" xlink:href="#DejaVuSans-50"/>
     <use x="146.582031" xlink:href="#DejaVuSans-49"/>
     <use x="176.074219" xlink:href="#DejaVuSans-2d"/>
     <use x="212.158203" xlink:href="#DejaVuSans-45"/>
     <use x="275.341797" xlink:href="#DejaVuSans-53"/>
     <use x="338.818359" xlink:href="#DejaVuSans-4d"/>
     <use x="425.097656" xlink:href="#DejaVuSans-2d"/>
     <use x="461.181641" xlink:href="#DejaVuSans-4c"/>
     <use x="516.894531" xlink:href="#DejaVuSans-52"/>
     <use x="586.376953" xlink:href="#DejaVuSans-5f"/>
     <use x="636.376953" xlink:href="#DejaVuSans-72"/>
     <use x="677.490234" xlink:href="#DejaVuSans-32"/>
     <use x="741.113281" xlink:href="#DejaVuSans-69"/>
     <use x="768.896484" xlink:href="#DejaVuSans-31"/>
     <use x="832.519531" xlink:href="#DejaVuSans-70"/>
     <use x="895.996094" xlink:href="#DejaVuSans-31"/>
    </g>
   </g>
   <g id="line2d_37"/>
   <g id="line2d_38">
    <defs>
     <path d="M 3.5 0 
L -3.5 -3.5 
L -3.5 3.5 
z
" id="mf00c058111" style="stroke:#000000;stroke-linejoin:miter;"/>
    </defs>
    <g>
     <use style="fill:#ffffff;stroke:#000000;stroke-linejoin:miter;" x="178.63125" xlink:href="#mf00c058111" y="74.845313"/>
    </g>
   </g>
   <g id="text_21">
    <!-- MPI-ESM-LR_r3i1p1 -->
    <g transform="translate(196.63125 78.345313)scale(0.1 -0.1)">
     <use xlink:href="#DejaVuSans-4d"/>
     <use x="86.279297" xlink:href="#DejaVuSans-50"/>
     <use x="146.582031" xlink:href="#DejaVuSans-49"/>
     <use x="176.074219" xlink:href="#DejaVuSans-2d"/>
     <use x="212.158203" xlink:href="#DejaVuSans-45"/>
     <use x="275.341797" xlink:href="#DejaVuSans-53"/>
     <use x="338.818359" xlink:href="#DejaVuSans-4d"/>
     <use x="425.097656" xlink:href="#DejaVuSans-2d"/>
     <use x="461.181641" xlink:href="#DejaVuSans-4c"/>
     <use x="516.894531" xlink:href="#DejaVuSans-52"/>
     <use x="586.376953" xlink:href="#DejaVuSans-5f"/>
     <use x="636.376953" xlink:href="#DejaVuSans-72"/>
     <use x="677.490234" xlink:href="#DejaVuSans-33"/>
     <use x="741.113281" xlink:href="#DejaVuSans-69"/>
     <use x="768.896484" xlink:href="#DejaVuSans-31"/>
     <use x="832.519531" xlink:href="#DejaVuSans-70"/>
     <use x="895.996094" xlink:href="#DejaVuSans-31"/>
    </g>
   </g>
   <g id="line2d_39"/>
   <g id="line2d_40">
    <defs>
     <path d="M -1.75 3.5 
L 0 1.75 
L 1.75 3.5 
L 3.5 1.75 
L 1.75 0 
L 3.5 -1.75 
L 1.75 -3.5 
L 0 -1.75 
L -1.75 -3.5 
L -3.5 -1.75 
L -1.75 0 
L -3.5 1.75 
z
" id="mba84b646f6" style="stroke:#000000;stroke-linejoin:miter;"/>
    </defs>
    <g>
     <use style="fill:#ffffff;stroke:#000000;stroke-linejoin:miter;" x="178.63125" xlink:href="#mba84b646f6" y="89.801563"/>
    </g>
   </g>
   <g id="text_22">
    <!-- NorESM1-M_r1i1p1 -->
    <g transform="translate(196.63125 93.301563)scale(0.1 -0.1)">
     <use xlink:href="#DejaVuSans-4e"/>
     <use x="74.804688" xlink:href="#DejaVuSans-6f"/>
     <use x="135.986328" xlink:href="#DejaVuSans-72"/>
     <use x="177.099609" xlink:href="#DejaVuSans-45"/>
     <use x="240.283203" xlink:href="#DejaVuSans-53"/>
     <use x="303.759766" xlink:href="#DejaVuSans-4d"/>
     <use x="390.039062" xlink:href="#DejaVuSans-31"/>
     <use x="453.662109" xlink:href="#DejaVuSans-2d"/>
     <use x="489.746094" xlink:href="#DejaVuSans-4d"/>
     <use x="576.025391" xlink:href="#DejaVuSans-5f"/>
     <use x="626.025391" xlink:href="#DejaVuSans-72"/>
     <use x="667.138672" xlink:href="#DejaVuSans-31"/>
     <use x="730.761719" xlink:href="#DejaVuSans-69"/>
     <use x="758.544922" xlink:href="#DejaVuSans-31"/>
     <use x="822.167969" xlink:href="#DejaVuSans-70"/>
     <use x="885.644531" xlink:href="#DejaVuSans-31"/>
    </g>
   </g>
  </g>
  <g id="legend_3">
   <g id="patch_4">
    <path d="M 336.8 184.390625 
L 442.371875 184.390625 
Q 444.371875 184.390625 444.371875 182.390625 
L 444.371875 124.4 
Q 444.371875 122.4 442.371875 122.4 
L 336.8 122.4 
Q 334.8 122.4 334.8 124.4 
L 334.8 182.390625 
Q 334.8 184.390625 336.8 184.390625 
z
" style="fill:#ffffff;opacity:0.8;stroke:#ffffff;stroke-linejoin:miter;"/>
   </g>
   <g id="text_23">
    <!-- Other runs -->
    <g transform="translate(362.802344 133.998438)scale(0.1 -0.1)">
     <defs>
      <path d="M 1172 4494 
L 1172 3500 
L 2356 3500 
L 2356 3053 
L 1172 3053 
L 1172 1153 
Q 1172 725 1289 603 
Q 1406 481 1766 481 
L 2356 481 
L 2356 0 
L 1766 0 
Q 1100 0 847 248 
Q 594 497 594 1153 
L 594 3053 
L 172 3053 
L 172 3500 
L 594 3500 
L 594 4494 
L 1172 4494 
z
" id="DejaVuSans-74" transform="scale(0.015625)"/>
      <path d="M 3513 2113 
L 3513 0 
L 2938 0 
L 2938 2094 
Q 2938 2591 2744 2837 
Q 2550 3084 2163 3084 
Q 1697 3084 1428 2787 
Q 1159 2491 1159 1978 
L 1159 0 
L 581 0 
L 581 4863 
L 1159 4863 
L 1159 2956 
Q 1366 3272 1645 3428 
Q 1925 3584 2291 3584 
Q 2894 3584 3203 3211 
Q 3513 2838 3513 2113 
z
" id="DejaVuSans-68" transform="scale(0.015625)"/>
      <path d="M 3513 2113 
L 3513 0 
L 2938 0 
L 2938 2094 
Q 2938 2591 2744 2837 
Q 2550 3084 2163 3084 
Q 1697 3084 1428 2787 
Q 1159 2491 1159 1978 
L 1159 0 
L 581 0 
L 581 3500 
L 1159 3500 
L 1159 2956 
Q 1366 3272 1645 3428 
Q 1925 3584 2291 3584 
Q 2894 3584 3203 3211 
Q 3513 2838 3513 2113 
z
" id="DejaVuSans-6e" transform="scale(0.015625)"/>
     </defs>
     <use xlink:href="#DejaVuSans-4f"/>
     <use x="78.710938" xlink:href="#DejaVuSans-74"/>
     <use x="117.919922" xlink:href="#DejaVuSans-68"/>
     <use x="181.298828" xlink:href="#DejaVuSans-65"/>
     <use x="242.822266" xlink:href="#DejaVuSans-72"/>
     <use x="283.935547" xlink:href="#DejaVuSans-20"/>
     <use x="315.722656" xlink:href="#DejaVuSans-72"/>
     <use x="356.835938" xlink:href="#DejaVuSans-75"/>
     <use x="420.214844" xlink:href="#DejaVuSans-6e"/>
     <use x="483.59375" xlink:href="#DejaVuSans-73"/>
    </g>
   </g>
   <g id="line2d_41"/>
   <g id="line2d_42">
    <defs>
     <path d="M -3.5 3.5 
L 3.5 -3.5 
M -3.5 -3.5 
L 3.5 3.5 
" id="m46d797dd75" style="stroke:#000000;"/>
    </defs>
    <g>
     <use style="fill:#808080;stroke:#000000;" x="348.8" xlink:href="#m46d797dd75" y="145.176563"/>
    </g>
   </g>
   <g id="text_24">
    <!-- UKCP18 60km -->
    <g transform="translate(366.8 148.676563)scale(0.1 -0.1)">
     <defs>
      <path d="M 556 4666 
L 1191 4666 
L 1191 1831 
Q 1191 1081 1462 751 
Q 1734 422 2344 422 
Q 2950 422 3222 751 
Q 3494 1081 3494 1831 
L 3494 4666 
L 4128 4666 
L 4128 1753 
Q 4128 841 3676 375 
Q 3225 -91 2344 -91 
Q 1459 -91 1007 375 
Q 556 841 556 1753 
L 556 4666 
z
" id="DejaVuSans-55" transform="scale(0.015625)"/>
      <path d="M 628 4666 
L 1259 4666 
L 1259 2694 
L 3353 4666 
L 4166 4666 
L 1850 2491 
L 4331 0 
L 3500 0 
L 1259 2247 
L 1259 0 
L 628 0 
L 628 4666 
z
" id="DejaVuSans-4b" transform="scale(0.015625)"/>
      <path d="M 581 4863 
L 1159 4863 
L 1159 1991 
L 2875 3500 
L 3609 3500 
L 1753 1863 
L 3688 0 
L 2938 0 
L 1159 1709 
L 1159 0 
L 581 0 
L 581 4863 
z
" id="DejaVuSans-6b" transform="scale(0.015625)"/>
      <path d="M 3328 2828 
Q 3544 3216 3844 3400 
Q 4144 3584 4550 3584 
Q 5097 3584 5394 3201 
Q 5691 2819 5691 2113 
L 5691 0 
L 5113 0 
L 5113 2094 
Q 5113 2597 4934 2840 
Q 4756 3084 4391 3084 
Q 3944 3084 3684 2787 
Q 3425 2491 3425 1978 
L 3425 0 
L 2847 0 
L 2847 2094 
Q 2847 2600 2669 2842 
Q 2491 3084 2119 3084 
Q 1678 3084 1418 2786 
Q 1159 2488 1159 1978 
L 1159 0 
L 581 0 
L 581 3500 
L 1159 3500 
L 1159 2956 
Q 1356 3278 1631 3431 
Q 1906 3584 2284 3584 
Q 2666 3584 2933 3390 
Q 3200 3197 3328 2828 
z
" id="DejaVuSans-6d" transform="scale(0.015625)"/>
     </defs>
     <use xlink:href="#DejaVuSans-55"/>
     <use x="73.193359" xlink:href="#DejaVuSans-4b"/>
     <use x="133.269531" xlink:href="#DejaVuSans-43"/>
     <use x="203.09375" xlink:href="#DejaVuSans-50"/>
     <use x="263.396484" xlink:href="#DejaVuSans-31"/>
     <use x="327.019531" xlink:href="#DejaVuSans-38"/>
     <use x="390.642578" xlink:href="#DejaVuSans-20"/>
     <use x="422.429688" xlink:href="#DejaVuSans-36"/>
     <use x="486.052734" xlink:href="#DejaVuSans-30"/>
     <use x="549.675781" xlink:href="#DejaVuSans-6b"/>
     <use x="607.585938" xlink:href="#DejaVuSans-6d"/>
    </g>
   </g>
   <g id="line2d_43"/>
   <g id="line2d_44">
    <defs>
     <path d="M -3.5 0 
L 3.5 0 
M 0 3.5 
L 0 -3.5 
" id="m591b49fc53" style="stroke:#000000;"/>
    </defs>
    <g>
     <use style="fill:#808080;stroke:#000000;" x="348.8" xlink:href="#m591b49fc53" y="159.854688"/>
    </g>
   </g>
   <g id="text_25">
    <!-- UKCP18 12km -->
    <g transform="translate(366.8 163.354688)scale(0.1 -0.1)">
     <use xlink:href="#DejaVuSans-55"/>
     <use x="73.193359" xlink:href="#DejaVuSans-4b"/>
     <use x="133.269531" xlink:href="#DejaVuSans-43"/>
     <use x="203.09375" xlink:href="#DejaVuSans-50"/>
     <use x="263.396484" xlink:href="#DejaVuSans-31"/>
     <use x="327.019531" xlink:href="#DejaVuSans-38"/>
     <use x="390.642578" xlink:href="#DejaVuSans-20"/>
     <use x="422.429688" xlink:href="#DejaVuSans-31"/>
     <use x="486.052734" xlink:href="#DejaVuSans-32"/>
     <use x="549.675781" xlink:href="#DejaVuSans-6b"/>
     <use x="607.585938" xlink:href="#DejaVuSans-6d"/>
    </g>
   </g>
   <g id="line2d_45"/>
   <g id="line2d_46">
    <defs>
     <path d="M 0 -3.5 
L -0.785799 -1.081559 
L -3.328698 -1.081559 
L -1.271449 0.413119 
L -2.057248 2.831559 
L -0 1.336881 
L 2.057248 2.831559 
L 1.271449 0.413119 
L 3.328698 -1.081559 
L 0.785799 -1.081559 
z
" id="md72c2e47cc" style="stroke:#000000;stroke-linejoin:bevel;"/>
    </defs>
    <g>
     <use style="fill:#ffffff;stroke:#000000;stroke-linejoin:bevel;" x="348.8" xlink:href="#md72c2e47cc" y="174.532813"/>
    </g>
   </g>
   <g id="text_26">
    <!-- ERAINT_r1i1p1 -->
    <g transform="translate(366.8 178.032813)scale(0.1 -0.1)">
     <use xlink:href="#DejaVuSans-45"/>
     <use x="63.183594" xlink:href="#DejaVuSans-52"/>
     <use x="128.666016" xlink:href="#DejaVuSans-41"/>
     <use x="197.074219" xlink:href="#DejaVuSans-49"/>
     <use x="226.566406" xlink:href="#DejaVuSans-4e"/>
     <use x="301.371094" xlink:href="#DejaVuSans-54"/>
     <use x="362.455078" xlink:href="#DejaVuSans-5f"/>
     <use x="412.455078" xlink:href="#DejaVuSans-72"/>
     <use x="453.568359" xlink:href="#DejaVuSans-31"/>
     <use x="517.191406" xlink:href="#DejaVuSans-69"/>
     <use x="544.974609" xlink:href="#DejaVuSans-31"/>
     <use x="608.597656" xlink:href="#DejaVuSans-70"/>
     <use x="672.074219" xlink:href="#DejaVuSans-31"/>
    </g>
   </g>
  </g>
  <g id="legend_4">
   <g id="patch_5">
    <path d="M 9.2 214.859375 
L 292.0125 214.859375 
Q 294.0125 214.859375 294.0125 212.859375 
L 294.0125 124.4 
Q 294.0125 122.4 292.0125 122.4 
L 9.2 122.4 
Q 7.2 122.4 7.2 124.4 
L 7.2 212.859375 
Q 7.2 214.859375 9.2 214.859375 
z
" style="fill:#ffffff;opacity:0.8;stroke:#ffffff;stroke-linejoin:miter;"/>
   </g>
   <g id="text_27">
    <!-- CMIP5-13 GCMs -->
    <g transform="translate(111.089844 133.998438)scale(0.1 -0.1)">
     <use xlink:href="#DejaVuSans-43"/>
     <use x="69.824219" xlink:href="#DejaVuSans-4d"/>
     <use x="156.103516" xlink:href="#DejaVuSans-49"/>
     <use x="185.595703" xlink:href="#DejaVuSans-50"/>
     <use x="245.898438" xlink:href="#DejaVuSans-35"/>
     <use x="309.521484" xlink:href="#DejaVuSans-2d"/>
     <use x="345.605469" xlink:href="#DejaVuSans-31"/>
     <use x="409.228516" xlink:href="#DejaVuSans-33"/>
     <use x="472.851562" xlink:href="#DejaVuSans-20"/>
     <use x="504.638672" xlink:href="#DejaVuSans-47"/>
     <use x="582.128906" xlink:href="#DejaVuSans-43"/>
     <use x="651.953125" xlink:href="#DejaVuSans-4d"/>
     <use x="738.232422" xlink:href="#DejaVuSans-73"/>
    </g>
   </g>
   <g id="line2d_47"/>
   <g id="line2d_48">
    <defs>
     <path d="M 0 3.5 
C 0.928211 3.5 1.81853 3.131218 2.474874 2.474874 
C 3.131218 1.81853 3.5 0.928211 3.5 0 
C 3.5 -0.928211 3.131218 -1.81853 2.474874 -2.474874 
C 1.81853 -3.131218 0.928211 -3.5 0 -3.5 
C -0.928211 -3.5 -1.81853 -3.131218 -2.474874 -2.474874 
C -3.131218 -1.81853 -3.5 -0.928211 -3.5 0 
C -3.5 0.928211 -3.131218 1.81853 -2.474874 2.474874 
C -1.81853 3.131218 -0.928211 3.5 0 3.5 
z
" id="meea34c714d" style="stroke:#000000;"/>
    </defs>
    <g>
     <use style="fill:#808080;stroke:#000000;" x="21.2" xlink:href="#meea34c714d" y="145.176563"/>
    </g>
   </g>
   <g id="text_28">
    <!-- ACCESS1-3_r1i1p1 -->
    <g transform="translate(39.2 148.676563)scale(0.1 -0.1)">
     <use xlink:href="#DejaVuSans-41"/>
     <use x="66.658203" xlink:href="#DejaVuSans-43"/>
     <use x="136.482422" xlink:href="#DejaVuSans-43"/>
     <use x="206.306641" xlink:href="#DejaVuSans-45"/>
     <use x="269.490234" xlink:href="#DejaVuSans-53"/>
     <use x="332.966797" xlink:href="#DejaVuSans-53"/>
     <use x="396.443359" xlink:href="#DejaVuSans-31"/>
     <use x="460.066406" xlink:href="#DejaVuSans-2d"/>
     <use x="496.150391" xlink:href="#DejaVuSans-33"/>
     <use x="559.773438" xlink:href="#DejaVuSans-5f"/>
     <use x="609.773438" xlink:href="#DejaVuSans-72"/>
     <use x="650.886719" xlink:href="#DejaVuSans-31"/>
     <use x="714.509766" xlink:href="#DejaVuSans-69"/>
     <use x="742.292969" xlink:href="#DejaVuSans-31"/>
     <use x="805.916016" xlink:href="#DejaVuSans-70"/>
     <use x="869.392578" xlink:href="#DejaVuSans-31"/>
    </g>
   </g>
   <g id="line2d_49"/>
   <g id="line2d_50">
    <defs>
     <path d="M 0 -3.5 
L -3.328698 -1.081559 
L -2.057248 2.831559 
L 2.057248 2.831559 
L 3.328698 -1.081559 
z
" id="mbf6f6cc586" style="stroke:#000000;stroke-linejoin:miter;"/>
    </defs>
    <g>
     <use style="fill:#808080;stroke:#000000;stroke-linejoin:miter;" x="21.2" xlink:href="#mbf6f6cc586" y="160.132813"/>
    </g>
   </g>
   <g id="text_29">
    <!-- BCC-CSM1-1_r1i1p1 -->
    <g transform="translate(39.2 163.632813)scale(0.1 -0.1)">
     <defs>
      <path d="M 1259 2228 
L 1259 519 
L 2272 519 
Q 2781 519 3026 730 
Q 3272 941 3272 1375 
Q 3272 1813 3026 2020 
Q 2781 2228 2272 2228 
L 1259 2228 
z
M 1259 4147 
L 1259 2741 
L 2194 2741 
Q 2656 2741 2882 2914 
Q 3109 3088 3109 3444 
Q 3109 3797 2882 3972 
Q 2656 4147 2194 4147 
L 1259 4147 
z
M 628 4666 
L 2241 4666 
Q 2963 4666 3353 4366 
Q 3744 4066 3744 3513 
Q 3744 3084 3544 2831 
Q 3344 2578 2956 2516 
Q 3422 2416 3680 2098 
Q 3938 1781 3938 1306 
Q 3938 681 3513 340 
Q 3088 0 2303 0 
L 628 0 
L 628 4666 
z
" id="DejaVuSans-42" transform="scale(0.015625)"/>
     </defs>
     <use xlink:href="#DejaVuSans-42"/>
     <use x="66.853516" xlink:href="#DejaVuSans-43"/>
     <use x="136.677734" xlink:href="#DejaVuSans-43"/>
     <use x="206.501953" xlink:href="#DejaVuSans-2d"/>
     <use x="242.585938" xlink:href="#DejaVuSans-43"/>
     <use x="312.410156" xlink:href="#DejaVuSans-53"/>
     <use x="375.886719" xlink:href="#DejaVuSans-4d"/>
     <use x="462.166016" xlink:href="#DejaVuSans-31"/>
     <use x="525.789062" xlink:href="#DejaVuSans-2d"/>
     <use x="561.873047" xlink:href="#DejaVuSans-31"/>
     <use x="625.496094" xlink:href="#DejaVuSans-5f"/>
     <use x="675.496094" xlink:href="#DejaVuSans-72"/>
     <use x="716.609375" xlink:href="#DejaVuSans-31"/>
     <use x="780.232422" xlink:href="#DejaVuSans-69"/>
     <use x="808.015625" xlink:href="#DejaVuSans-31"/>
     <use x="871.638672" xlink:href="#DejaVuSans-70"/>
     <use x="935.115234" xlink:href="#DejaVuSans-31"/>
    </g>
   </g>
   <g id="line2d_51"/>
   <g id="line2d_52">
    <defs>
     <path d="M 0 -3.5 
L -3.031089 -1.75 
L -3.031089 1.75 
L -0 3.5 
L 3.031089 1.75 
L 3.031089 -1.75 
z
" id="mc602cb361f" style="stroke:#000000;stroke-linejoin:miter;"/>
    </defs>
    <g>
     <use style="fill:#808080;stroke:#000000;stroke-linejoin:miter;" x="21.2" xlink:href="#mc602cb361f" y="175.089063"/>
    </g>
   </g>
   <g id="text_30">
    <!-- CanESM2_r1i1p1 -->
    <g transform="translate(39.2 178.589063)scale(0.1 -0.1)">
     <use xlink:href="#DejaVuSans-43"/>
     <use x="69.824219" xlink:href="#DejaVuSans-61"/>
     <use x="131.103516" xlink:href="#DejaVuSans-6e"/>
     <use x="194.482422" xlink:href="#DejaVuSans-45"/>
     <use x="257.666016" xlink:href="#DejaVuSans-53"/>
     <use x="321.142578" xlink:href="#DejaVuSans-4d"/>
     <use x="407.421875" xlink:href="#DejaVuSans-32"/>
     <use x="471.044922" xlink:href="#DejaVuSans-5f"/>
     <use x="521.044922" xlink:href="#DejaVuSans-72"/>
     <use x="562.158203" xlink:href="#DejaVuSans-31"/>
     <use x="625.78125" xlink:href="#DejaVuSans-69"/>
     <use x="653.564453" xlink:href="#DejaVuSans-31"/>
     <use x="717.1875" xlink:href="#DejaVuSans-70"/>
     <use x="780.664062" xlink:href="#DejaVuSans-31"/>
    </g>
   </g>
   <g id="line2d_53"/>
   <g id="line2d_54">
    <defs>
     <path d="M -1.75 -3.031089 
L -3.5 -0 
L -1.75 3.031089 
L 1.75 3.031089 
L 3.5 0 
L 1.75 -3.031089 
z
" id="m1a5a624118" style="stroke:#000000;stroke-linejoin:miter;"/>
    </defs>
    <g>
     <use style="fill:#808080;stroke:#000000;stroke-linejoin:miter;" x="21.2" xlink:href="#m1a5a624118" y="190.045313"/>
    </g>
   </g>
   <g id="text_31">
    <!-- CCSM4_r1i1p1 -->
    <g transform="translate(39.2 193.545313)scale(0.1 -0.1)">
     <use xlink:href="#DejaVuSans-43"/>
     <use x="69.824219" xlink:href="#DejaVuSans-43"/>
     <use x="139.648438" xlink:href="#DejaVuSans-53"/>
     <use x="203.125" xlink:href="#DejaVuSans-4d"/>
     <use x="289.404297" xlink:href="#DejaVuSans-34"/>
     <use x="353.027344" xlink:href="#DejaVuSans-5f"/>
     <use x="403.027344" xlink:href="#DejaVuSans-72"/>
     <use x="444.140625" xlink:href="#DejaVuSans-31"/>
     <use x="507.763672" xlink:href="#DejaVuSans-69"/>
     <use x="535.546875" xlink:href="#DejaVuSans-31"/>
     <use x="599.169922" xlink:href="#DejaVuSans-70"/>
     <use x="662.646484" xlink:href="#DejaVuSans-31"/>
    </g>
   </g>
   <g id="line2d_55"/>
   <g id="line2d_56">
    <defs>
     <path d="M -3.5 3.5 
L 3.5 3.5 
L 3.5 -3.5 
L -3.5 -3.5 
z
" id="m3366054729" style="stroke:#000000;stroke-linejoin:miter;"/>
    </defs>
    <g>
     <use style="fill:#808080;stroke:#000000;stroke-linejoin:miter;" x="21.2" xlink:href="#m3366054729" y="205.001563"/>
    </g>
   </g>
   <g id="text_32">
    <!-- CESM1-BGC_r1i1p1 -->
    <g transform="translate(39.2 208.501563)scale(0.1 -0.1)">
     <use xlink:href="#DejaVuSans-43"/>
     <use x="69.824219" xlink:href="#DejaVuSans-45"/>
     <use x="133.007812" xlink:href="#DejaVuSans-53"/>
     <use x="196.484375" xlink:href="#DejaVuSans-4d"/>
     <use x="282.763672" xlink:href="#DejaVuSans-31"/>
     <use x="346.386719" xlink:href="#DejaVuSans-2d"/>
     <use x="378.845703" xlink:href="#DejaVuSans-42"/>
     <use x="445.699219" xlink:href="#DejaVuSans-47"/>
     <use x="523.189453" xlink:href="#DejaVuSans-43"/>
     <use x="593.013672" xlink:href="#DejaVuSans-5f"/>
     <use x="643.013672" xlink:href="#DejaVuSans-72"/>
     <use x="684.126953" xlink:href="#DejaVuSans-31"/>
     <use x="747.75" xlink:href="#DejaVuSans-69"/>
     <use x="775.533203" xlink:href="#DejaVuSans-31"/>
     <use x="839.15625" xlink:href="#DejaVuSans-70"/>
     <use x="902.632812" xlink:href="#DejaVuSans-31"/>
    </g>
   </g>
   <g id="line2d_57"/>
   <g id="line2d_58">
    <defs>
     <path d="M 3.5 0 
L -3.5 -3.5 
L -3.5 3.5 
z
" id="mdccfb73bdf" style="stroke:#000000;stroke-linejoin:miter;"/>
    </defs>
    <g>
     <use style="fill:#808080;stroke:#000000;stroke-linejoin:miter;" x="169.076563" xlink:href="#mdccfb73bdf" y="145.176563"/>
    </g>
   </g>
   <g id="text_33">
    <!-- CMCC-CM_r1i1p1 -->
    <g transform="translate(187.076563 148.676563)scale(0.1 -0.1)">
     <use xlink:href="#DejaVuSans-43"/>
     <use x="69.824219" xlink:href="#DejaVuSans-4d"/>
     <use x="156.103516" xlink:href="#DejaVuSans-43"/>
     <use x="225.927734" xlink:href="#DejaVuSans-43"/>
     <use x="295.751953" xlink:href="#DejaVuSans-2d"/>
     <use x="331.835938" xlink:href="#DejaVuSans-43"/>
     <use x="401.660156" xlink:href="#DejaVuSans-4d"/>
     <use x="487.939453" xlink:href="#DejaVuSans-5f"/>
     <use x="537.939453" xlink:href="#DejaVuSans-72"/>
     <use x="579.052734" xlink:href="#DejaVuSans-31"/>
     <use x="642.675781" xlink:href="#DejaVuSans-69"/>
     <use x="670.458984" xlink:href="#DejaVuSans-31"/>
     <use x="734.082031" xlink:href="#DejaVuSans-70"/>
     <use x="797.558594" xlink:href="#DejaVuSans-31"/>
    </g>
   </g>
   <g id="line2d_59"/>
   <g id="line2d_60">
    <defs>
     <path d="M -0 4.949747 
L 2.969848 0 
L 0 -4.949747 
L -2.969848 -0 
z
" id="md91b9d897b" style="stroke:#000000;stroke-linejoin:miter;"/>
    </defs>
    <g>
     <use style="fill:#808080;stroke:#000000;stroke-linejoin:miter;" x="169.076563" xlink:href="#md91b9d897b" y="160.132813"/>
    </g>
   </g>
   <g id="text_34">
    <!-- GFDL-ESM2G_r1i1p1 -->
    <g transform="translate(187.076563 163.632813)scale(0.1 -0.1)">
     <use xlink:href="#DejaVuSans-47"/>
     <use x="77.490234" xlink:href="#DejaVuSans-46"/>
     <use x="135.009766" xlink:href="#DejaVuSans-44"/>
     <use x="212.011719" xlink:href="#DejaVuSans-4c"/>
     <use x="265.974609" xlink:href="#DejaVuSans-2d"/>
     <use x="302.058594" xlink:href="#DejaVuSans-45"/>
     <use x="365.242188" xlink:href="#DejaVuSans-53"/>
     <use x="428.71875" xlink:href="#DejaVuSans-4d"/>
     <use x="514.998047" xlink:href="#DejaVuSans-32"/>
     <use x="578.621094" xlink:href="#DejaVuSans-47"/>
     <use x="656.111328" xlink:href="#DejaVuSans-5f"/>
     <use x="706.111328" xlink:href="#DejaVuSans-72"/>
     <use x="747.224609" xlink:href="#DejaVuSans-31"/>
     <use x="810.847656" xlink:href="#DejaVuSans-69"/>
     <use x="838.630859" xlink:href="#DejaVuSans-31"/>
     <use x="902.253906" xlink:href="#DejaVuSans-70"/>
     <use x="965.730469" xlink:href="#DejaVuSans-31"/>
    </g>
   </g>
   <g id="line2d_61"/>
   <g id="line2d_62">
    <defs>
     <path d="M 0 -3.5 
L -3.5 3.5 
L 3.5 3.5 
z
" id="mfad92e5cc6" style="stroke:#000000;stroke-linejoin:miter;"/>
    </defs>
    <g>
     <use style="fill:#808080;stroke:#000000;stroke-linejoin:miter;" x="169.076563" xlink:href="#mfad92e5cc6" y="175.089063"/>
    </g>
   </g>
   <g id="text_35">
    <!-- MPI-ESM-MR_r1i1p1 -->
    <g transform="translate(187.076563 178.589063)scale(0.1 -0.1)">
     <use xlink:href="#DejaVuSans-4d"/>
     <use x="86.279297" xlink:href="#DejaVuSans-50"/>
     <use x="146.582031" xlink:href="#DejaVuSans-49"/>
     <use x="176.074219" xlink:href="#DejaVuSans-2d"/>
     <use x="212.158203" xlink:href="#DejaVuSans-45"/>
     <use x="275.341797" xlink:href="#DejaVuSans-53"/>
     <use x="338.818359" xlink:href="#DejaVuSans-4d"/>
     <use x="425.097656" xlink:href="#DejaVuSans-2d"/>
     <use x="461.181641" xlink:href="#DejaVuSans-4d"/>
     <use x="547.460938" xlink:href="#DejaVuSans-52"/>
     <use x="616.943359" xlink:href="#DejaVuSans-5f"/>
     <use x="666.943359" xlink:href="#DejaVuSans-72"/>
     <use x="708.056641" xlink:href="#DejaVuSans-31"/>
     <use x="771.679688" xlink:href="#DejaVuSans-69"/>
     <use x="799.462891" xlink:href="#DejaVuSans-31"/>
     <use x="863.085938" xlink:href="#DejaVuSans-70"/>
     <use x="926.5625" xlink:href="#DejaVuSans-31"/>
    </g>
   </g>
   <g id="line2d_63"/>
   <g id="line2d_64">
    <defs>
     <path d="M -3.5 -0 
L 3.5 3.5 
L 3.5 -3.5 
z
" id="mca25575954" style="stroke:#000000;stroke-linejoin:miter;"/>
    </defs>
    <g>
     <use style="fill:#808080;stroke:#000000;stroke-linejoin:miter;" x="169.076563" xlink:href="#mca25575954" y="190.045313"/>
    </g>
   </g>
   <g id="text_36">
    <!-- MRI-CGCM3_r1i1p1 -->
    <g transform="translate(187.076563 193.545313)scale(0.1 -0.1)">
     <use xlink:href="#DejaVuSans-4d"/>
     <use x="86.279297" xlink:href="#DejaVuSans-52"/>
     <use x="155.761719" xlink:href="#DejaVuSans-49"/>
     <use x="185.253906" xlink:href="#DejaVuSans-2d"/>
     <use x="221.337891" xlink:href="#DejaVuSans-43"/>
     <use x="291.162109" xlink:href="#DejaVuSans-47"/>
     <use x="368.652344" xlink:href="#DejaVuSans-43"/>
     <use x="438.476562" xlink:href="#DejaVuSans-4d"/>
     <use x="524.755859" xlink:href="#DejaVuSans-33"/>
     <use x="588.378906" xlink:href="#DejaVuSans-5f"/>
     <use x="638.378906" xlink:href="#DejaVuSans-72"/>
     <use x="679.492188" xlink:href="#DejaVuSans-31"/>
     <use x="743.115234" xlink:href="#DejaVuSans-69"/>
     <use x="770.898438" xlink:href="#DejaVuSans-31"/>
     <use x="834.521484" xlink:href="#DejaVuSans-70"/>
     <use x="897.998047" xlink:href="#DejaVuSans-31"/>
    </g>
   </g>
  </g>
 </g>
</svg>
